HIERARCHY
ROOT Hips
{
	OFFSET 0.000000 0.000000 0.000000 
	CHANNELS 6 Xposition Yposition Zposition Zrotation Yrotation Xrotation
	JOINT LeftUpLeg
	{
		OFFSET 1.363060 -1.794630 0.839290 
		CHANNELS 3 Zrotation Yrotation Xrotation
		JOINT LeftLeg
		{
			OFFSET 2.448110 -6.726130 0.000000 
			CHANNELS 3 Zrotation Yrotation Xrotation
			JOINT LeftFoot
			{
				OFFSET 2.562200 -7.039590 0.000000 
				CHANNELS 3 Zrotation Yrotation Xrotation
				JOINT LeftToeBase
				{
					OFFSET 0.157640 -0.433110 2.322550 
					CHANNELS 3 Zrotation Yrotation Xrotation
					End Site
					{
						OFFSET 0.000000 0.000000 0.000000 
					}
				}
			}
		}
	}
	JOINT RightUpLeg
	{
		OFFSET -1.305520 -1.794630 0.839290 
		CHANNELS 3 Zrotation Yrotation Xrotation
		JOINT RightLeg
		{
			OFFSET -2.542530 -6.985550 0.000000 
			CHANNELS 3 Zrotation Yrotation Xrotation
			JOINT RightFoot
			{
				OFFSET -2.568260 -7.056230 0.000000 
				CHANNELS 3 Zrotation Yrotation Xrotation
				JOINT RightToeBase
				{
					OFFSET -0.164730 -0.452590 2.363150 
					CHANNELS 3 Zrotation Yrotation Xrotation
					End Site
					{
						OFFSET 0.000000 0.000000 0.000000 
					}
				}
			}
		}
	}
	JOINT Spine
	{
		OFFSET 0.028270 2.035590 -0.193380 
		CHANNELS 3 Zrotation Yrotation Xrotation
		JOINT Spine1
		{
			OFFSET 0.056720 2.048850 -0.042750 
			CHANNELS 3 Zrotation Yrotation Xrotation
			JOINT Neck1
			{
				OFFSET -0.054170 1.746240 0.172020 
				CHANNELS 3 Zrotation Yrotation Xrotation
				JOINT Head
				{
					OFFSET 0.104070 1.761360 -0.123970 
					CHANNELS 3 Zrotation Yrotation Xrotation
					End Site
					{
						OFFSET 0.000000 0.000000 0.000000 
					}
				}
			}
			JOINT LeftArm
			{
				OFFSET 3.362410 1.200890 -0.311210 
				CHANNELS 3 Zrotation Yrotation Xrotation
				JOINT LeftForeArm
				{
					OFFSET 4.983000 -0.000000 -0.000000 
					CHANNELS 3 Zrotation Yrotation Xrotation
					JOINT LeftHand
					{
						OFFSET 3.483560 -0.000000 -0.000000 
						CHANNELS 3 Zrotation Yrotation Xrotation
						JOINT LeftHandIndex1
						{
							OFFSET 0.715260 -0.000000 -0.000000 
							CHANNELS 3 Zrotation Yrotation Xrotation
							End Site
							{
								OFFSET 0.000000 0.000000 0.000000 
							}
						}
					}
				}
			}
			JOINT RightArm
			{
				OFFSET -3.136600 1.374050 -0.404650 
				CHANNELS 3 Zrotation Yrotation Xrotation
				JOINT RightForeArm
				{
					OFFSET -5.241900 -0.000000 -0.000000 
					CHANNELS 3 Zrotation Yrotation Xrotation
					JOINT RightHand
					{
						OFFSET -3.444170 -0.000000 -0.000000 
						CHANNELS 3 Zrotation Yrotation Xrotation
						JOINT RightHandIndex1
						{
							OFFSET -0.622530 -0.000000 -0.000000 
							CHANNELS 3 Zrotation Yrotation Xrotation
							End Site
							{
								OFFSET 0.000000 0.000000 0.000000 
							}
						}
					}
				}
			}
		}
	}
}
MOTION
Frames: 9
Frame Time: 0.041667
46.202724 17.161619 17.845533 -174.108075 -40.806705 176.760057 -19.093020 16.928426 -12.851113 0.969791 9.049652 24.382275 -0.401503 4.920794 -10.678698 0.002500 -0.325500 -0.894400 24.019283 6.292372 -16.658514 -3.164517 -14.506952 39.264603 1.444390 -9.798956 -15.391111 -0.010100 -0.648000 1.780800 1.217164 -1.618158 -0.767191 -1.071428 -0.886691 4.022475 9.348376 -1.617248 4.477402 2.107700 -0.745100 -0.223700 -79.313236 -2.723563 21.421953 3.915484 -15.175891 -1.377597 -1.739243 -1.461178 -9.674368 -7.125000 0.000000 0.000000 78.148511 -4.088429 25.182914 -13.418256 27.191543 -4.807160 1.351990 0.521565 0.639201 7.125000 0.000000 0.000000 
46.208951 17.161834 17.845318 -174.166943 -40.767867 176.778409 -19.127957 16.938409 -12.830907 0.966686 9.044401 24.361977 -0.416916 4.983595 -10.681885 0.003000 -0.352200 -0.967800 24.003739 6.268281 -16.444571 -3.191216 -14.500739 39.302718 1.773114 -10.866031 -15.229690 -0.000800 -0.187500 0.515100 1.206419 -1.573514 -0.769860 -1.070566 -0.864105 4.033302 9.318104 -1.682591 4.537036 2.087200 -0.772900 -0.194200 -79.268860 -2.720293 21.642022 4.017734 -15.322181 -1.402307 -1.737019 -1.446439 -9.922438 -7.125000 0.000000 0.000000 78.189110 -4.145712 24.805821 -13.142904 26.893398 -4.688631 1.357176 0.514096 0.927005 7.125000 0.000000 0.000000 
46.213782 17.160116 17.844459 -174.226095 -40.756029 176.779467 -19.160187 16.933495 -12.790577 0.965579 9.045658 24.360155 -0.417914 4.987914 -10.680775 0.002300 -0.309400 -0.850100 23.999290 6.223078 -16.184371 -3.180965 -14.473571 39.280071 1.557832 -10.213803 -15.515945 -0.047400 -1.405100 3.864100 1.194315 -1.558182 -0.771028 -1.082232 -0.854972 4.049090 9.323225 -1.708632 4.613886 2.112500 -0.777800 -0.157000 -79.180504 -2.822143 21.931773 4.092990 -15.422216 -1.419576 -1.729768 -1.451734 -10.241394 -7.125000 0.000000 0.000000 78.211691 -4.191320 24.467399 -12.858151 26.588184 -4.566322 1.355516 0.502041 1.168856 7.125000 0.000000 0.000000 
46.218292 17.160009 17.840272 -174.199429 -40.777368 176.725683 -19.104131 16.947981 -12.757164 0.966452 9.042317 24.355890 -0.413946 4.966142 -10.654317 0.002500 -0.325500 -0.894300 24.049131 6.193479 -15.917298 -3.175775 -14.428122 39.178498 1.888635 -11.186285 -14.987771 -0.012900 -0.733200 2.015100 1.191008 -1.553106 -0.779699 -1.103147 -0.850431 4.048041 9.293692 -1.728880 4.680702 2.081900 -0.783100 -0.110300 -79.147948 -2.786102 22.219723 4.248716 -15.641787 -1.460503 -1.730386 -1.449438 -10.559412 -7.125000 0.000000 0.000000 78.218808 -4.313429 24.202323 -12.630875 26.347017 -4.471291 1.367331 0.504980 1.326308 7.125000 0.000000 0.000000 
46.222908 17.159042 17.836836 -174.220689 -40.780962 176.707112 -19.093818 16.941127 -12.719183 0.966987 9.043164 24.357488 -0.416338 4.976378 -10.655676 0.002700 -0.333200 -0.915400 24.062213 6.169135 -15.637218 -3.153139 -14.372750 39.050428 1.979677 -11.437117 -14.787968 -0.013000 -0.736200 2.023300 1.183890 -1.541398 -0.785605 -1.115072 -0.842780 4.052702 9.278034 -1.754458 4.748299 2.075400 -0.790100 -0.071900 -79.097912 -2.793806 22.496878 4.393574 -15.843091 -1.500263 -1.715653 -1.468995 -10.816651 -7.125000 0.000000 0.000000 78.232778 -4.403805 23.895906 -12.382196 26.079185 -4.367563 1.374151 0.501372 1.530123 7.125000 0.000000 0.000000 
46.227096 17.157754 17.832220 -174.255288 -40.789408 176.698099 -19.091295 16.928638 -12.675699 0.966490 9.042921 24.354890 -0.419403 4.989436 -10.659062 0.002900 -0.346000 -0.950600 24.060265 6.159747 -15.341766 -3.111246 -14.298377 38.858749 2.002740 -11.464504 -14.614126 -0.014100 -0.767200 2.108500 1.176823 -1.533876 -0.792395 -1.124313 -0.837474 4.058540 9.264445 -1.774211 4.819215 2.071200 -0.793700 -0.029300 -79.048275 -2.803769 22.778966 4.555750 -16.067360 -1.546908 -1.694806 -1.502544 -11.040497 -7.125000 0.000000 0.000000 78.242199 -4.494487 23.599413 -12.138782 25.815726 -4.266937 1.381371 0.498233 1.723838 7.125000 0.000000 0.000000 
46.230853 17.156143 17.826422 -174.309604 -40.798198 176.705202 -19.103993 16.909355 -12.624899 0.964813 9.041397 24.346966 -0.424277 5.011541 -10.669010 0.003200 -0.366400 -1.006700 24.035599 6.170598 -15.044220 -3.054895 -14.210792 38.621702 1.971429 -11.320513 -14.489405 -0.014800 -0.785200 2.157900 1.169484 -1.529235 -0.799965 -1.128986 -0.833753 4.064050 9.252157 -1.788514 4.889449 2.069500 -0.794600 0.011900 -79.003596 -2.810571 23.057104 4.733228 -16.312139 -1.600034 -1.669510 -1.546238 -11.237870 -7.125000 0.000000 0.000000 78.245557 -4.587945 23.317414 -11.901823 25.558694 -4.169878 1.388944 0.496434 1.907292 7.125000 0.000000 0.000000 
46.233859 17.154211 17.819658 -174.397558 -40.806682 176.735670 -19.141023 16.901943 -12.570307 0.961039 9.036955 24.328670 -0.427039 5.024501 -10.674473 0.003600 -0.386200 -1.061200 23.976579 6.199648 -14.742791 -2.982159 -14.106058 38.328697 1.899377 -11.054489 -14.429751 -0.015900 -0.814700 2.239200 1.161140 -1.526262 -0.808047 -1.127028 -0.831268 4.070365 9.244600 -1.796693 4.960361 2.074200 -0.792200 0.053000 -78.964975 -2.818462 23.331054 4.918770 -16.566503 -1.656858 -1.642771 -1.593304 -11.428623 -7.125000 0.000000 0.000000 78.243446 -4.680362 23.044201 -11.668872 25.304908 -4.075177 1.395141 0.493137 2.088178 7.125000 0.000000 0.000000 
46.236436 17.152278 17.811820 -174.508082 -40.814599 176.784403 -19.195260 16.914810 -12.517377 0.955348 9.028729 24.298299 -0.426812 5.023009 -10.666502 0.004000 -0.407200 -1.119000 23.892096 6.242875 -14.445514 -2.896822 -13.986840 37.986830 1.827752 -10.797612 -14.407294 -0.015400 -0.802000 2.204200 1.152061 -1.522478 -0.816759 -1.120742 -0.828679 4.076483 9.239112 -1.803123 5.031538 2.081600 -0.789000 0.093500 -78.932178 -2.825217 23.608993 5.107777 -16.824803 -1.715416 -1.619791 -1.636443 -11.646634 -7.125000 0.000000 0.000000 78.240034 -4.773611 22.780710 -11.443490 25.058464 -3.984323 1.400845 0.489967 2.261419 7.125000 0.000000 0.000000 
